<svg xmlns="http://www.w3.org/2000/svg" viewBox="0 0 64 64" role="img" aria-labelledby="title">
  <title id="title">PotatoFlow</title>
  <defs>
    <linearGradient id="skin" x1="12" y1="8" x2="51" y2="57" gradientUnits="userSpaceOnUse">
      <stop stop-color="#f3bd69"/>
      <stop offset="1" stop-color="#c87936"/>
    </linearGradient>
  </defs>
  <rect width="64" height="64" rx="17" fill="#fff7e8"/>
  <path d="M46.8 14.7c7 5.8 8.5 18.8 3.7 29.2-4.7 10.3-16 14.8-26.1 11.1C14.3 51.3 9 40.9 11.8 29.4 14.6 18 24.2 9.9 34.3 10c4.5 0 8.8 1.5 12.5 4.7Z" fill="url(#skin)" stroke="#9b5b2a" stroke-width="2.4"/>
  <circle cx="24" cy="28" r="2.2" fill="#6f401f"/>
  <circle cx="41" cy="26" r="2.2" fill="#6f401f"/>
  <path d="M25 39c4.8 4 10.3 4 15 0" fill="none" stroke="#6f401f" stroke-width="2.6" stroke-linecap="round"/>
  <circle cx="20" cy="40" r="2.1" fill="#b96d32" opacity=".6"/>
  <circle cx="43.5" cy="36.5" r="1.8" fill="#b96d32" opacity=".6"/>
  <path d="M47 10c1.7-3.8 4.4-5.7 8.2-5.8-.1 3.8-2 6.6-5.8 8.3" fill="#66a34c" stroke="#477e36" stroke-width="1.8" stroke-linecap="round" stroke-linejoin="round"/>
</svg>
